<?xml version="1.0" standalone="no"?>
<!DOCTYPE svg PUBLIC "-//W3C//DTD SVG 20010904//EN"
 "http://www.w3.org/TR/2001/REC-SVG-20010904/DTD/svg10.dtd">
<svg version="1.0" xmlns="http://www.w3.org/2000/svg"
 width="797.000000pt" height="719.000000pt" viewBox="0 0 797.000000 719.000000"
 preserveAspectRatio="xMidYMid meet">

<g transform="translate(0.000000,719.000000) scale(0.100000,-0.100000)"
fill="#000000" stroke="none">
<path d="M14 7174 c6 -16 1330 -2420 3461 -6287 263 -477 483 -867 489 -867 6
1 84 134 174 298 89 163 228 416 309 562 179 326 622 1129 873 1585 103 187
442 804 755 1370 625 1135 634 1150 1330 2415 268 487 494 896 502 908 8 13
12 26 9 29 -3 3 -106 -20 -228 -51 -123 -31 -482 -121 -798 -201 -316 -80
-879 -222 -1250 -316 -371 -94 -898 -227 -1170 -296 -272 -69 -499 -125 -505
-125 -5 0 -350 86 -765 192 -415 105 -984 249 -1265 320 -1360 344 -1903 480
-1914 480 -8 0 -11 -6 -7 -16z m6230 -1206 c-9 -18 -76 -141 -149 -273 -365
-660 -498 -901 -1200 -2175 -417 -756 -797 -1445 -844 -1531 l-87 -157 -194
352 c-106 193 -419 761 -695 1261 -276 501 -705 1278 -954 1729 -249 450 -450
821 -447 823 3 3 161 -33 352 -79 l347 -84 179 -324 c288 -522 1363 -2473
1391 -2525 15 -28 16 64 14 1216 l-2 1246 278 67 c153 36 282 64 287 61 4 -3
10 -1 12 4 4 11 305 84 317 77 5 -4 11 -2 13 2 5 14 636 165 650 156 7 -4 10
-3 5 1 -4 5 154 48 352 96 198 48 366 89 373 92 20 7 21 1 2 -35z"/>
<path d="M5485 5790 c-3 -5 -1 -10 4 -10 6 0 11 5 11 10 0 6 -2 10 -4 10 -3 0
-8 -4 -11 -10z"/>
<path d="M5427 5770 c-9 -33 0 -38 24 -13 16 15 18 22 8 28 -7 5 -10 4 -5 -3
3 -6 2 -13 -3 -16 -5 -4 -11 2 -13 11 -3 14 -5 13 -11 -7z"/>
<path d="M5377 5767 c-3 -8 1 -14 8 -14 7 0 11 6 8 14 -3 7 -6 13 -8 13 -2 0
-5 -6 -8 -13z"/>
<path d="M5469 5753 c-8 -9 -27 -22 -44 -29 -24 -10 -26 -13 -9 -14 11 0 25 5
32 12 16 16 15 7 -4 -31 -11 -21 -21 -30 -31 -27 -8 3 -17 6 -19 6 -2 0 -4 6
-4 14 0 8 -4 17 -9 20 -5 3 -8 -5 -8 -19 0 -13 2 -24 6 -23 20 2 31 -3 26 -13
-4 -6 -14 -8 -23 -4 -13 5 -12 2 3 -15 10 -11 13 -20 7 -20 -6 0 -13 4 -16 9
-8 13 -36 7 -46 -9 -4 -7 -15 -10 -25 -7 -9 4 -14 3 -10 -3 3 -6 13 -10 21
-10 8 0 14 -4 14 -10 0 -5 5 -10 11 -10 7 0 9 9 5 24 -5 19 -2 24 11 22 9 -2
18 -13 20 -25 2 -15 -1 -20 -9 -15 -7 5 -8 3 -4 -5 11 -17 44 18 40 42 -2 10
8 28 21 39 14 12 25 28 25 35 0 7 3 12 8 12 18 -3 22 2 12 20 -8 16 -6 23 12
35 12 9 17 16 11 16 -6 0 -17 -7 -24 -17z"/>
<path d="M5296 5744 c-4 -11 -2 -15 8 -11 21 8 28 -4 13 -22 -11 -14 -10 -14
6 -2 15 12 20 12 26 2 6 -10 10 -9 15 4 8 22 8 22 -10 29 -8 3 -12 2 -9 -4 3
-6 1 -10 -4 -10 -6 0 -11 7 -11 15 0 20 -26 19 -34 -1z"/>
<path d="M5205 5709 c-34 -21 -29 -25 10 -7 14 6 25 15 25 20 0 10 1 10 -35
-13z"/>
<path d="M5110 5708 c0 -4 4 -8 9 -8 6 0 12 4 15 8 3 5 -1 9 -9 9 -8 0 -15 -4
-15 -9z"/>
<path d="M5027 5667 l-28 -29 22 -24 c13 -13 25 -21 28 -17 3 5 16 9 28 10 16
2 21 -1 16 -13 -3 -8 -12 -13 -20 -10 -9 4 -11 2 -7 -6 5 -8 2 -9 -9 -5 -9 3
-19 1 -23 -6 -4 -7 -4 -9 1 -5 11 10 36 -12 29 -24 -4 -6 4 -5 16 2 20 10 21
10 16 -8 -7 -22 10 -33 34 -23 18 7 20 47 3 44 -7 -2 -13 2 -13 7 0 19 27 10
38 -12 10 -21 11 -21 9 -3 -3 31 -19 44 -39 34 -18 -10 -20 -8 -22 21 -1 11
-11 15 -36 14 -34 -2 -54 11 -44 28 3 4 11 8 17 8 7 0 6 -4 -3 -10 -12 -7 -10
-9 7 -8 21 2 21 28 0 28 -8 0 -8 3 0 11 13 13 36 3 28 -12 -3 -5 1 -6 9 -3 21
8 20 9 -6 26 -21 14 -25 12 -51 -15z m104 -119 c5 1 4 -7 -3 -18 -13 -21 -23
-18 -23 8 0 9 -6 18 -12 18 -26 3 -28 5 -13 14 11 7 19 5 28 -8 7 -9 18 -16
23 -14z"/>
<path d="M5098 5688 c5 -5 16 -8 23 -6 8 3 3 7 -10 11 -17 4 -21 3 -13 -5z"/>
<path d="M5147 5689 c7 -7 15 -10 18 -7 3 3 -2 9 -12 12 -14 6 -15 5 -6 -5z"/>
<path d="M5316 5684 c-23 -23 -20 -30 4 -9 11 10 20 20 20 22 0 7 -9 2 -24
-13z"/>
<path d="M4995 5679 c-4 -6 -12 -8 -19 -6 -6 3 -17 -2 -24 -9 -8 -9 -9 -14 -2
-14 6 0 9 -4 5 -9 -3 -5 -1 -12 4 -16 6 -3 8 4 6 15 -3 14 0 20 8 17 7 -2 11
-15 10 -28 -2 -22 -2 -22 6 -4 5 11 7 23 4 28 -2 4 1 7 7 7 6 0 9 4 6 9 -4 5
0 12 6 14 9 4 10 6 1 6 -6 1 -15 -4 -18 -10z"/>
<path d="M5340 5669 c-7 -11 -10 -23 -7 -25 2 -2 9 7 15 21 14 30 7 33 -8 4z"/>
<path d="M4910 5664 c0 -13 18 -39 24 -34 2 3 -2 14 -10 24 -8 11 -14 16 -14
10z"/>
<path d="M4815 5640 c-3 -5 -1 -10 4 -10 6 0 11 5 11 10 0 6 -2 10 -4 10 -3 0
-8 -4 -11 -10z"/>
<path d="M4848 5633 c7 -3 16 -2 19 1 4 3 -2 6 -13 5 -11 0 -14 -3 -6 -6z"/>
<path d="M5305 5630 c-3 -5 -1 -10 4 -10 6 0 11 5 11 10 0 6 -2 10 -4 10 -3 0
-8 -4 -11 -10z"/>
<path d="M4715 5620 c-13 -6 -15 -9 -5 -9 8 0 22 4 30 9 18 12 2 12 -25 0z"/>
<path d="M4750 5610 c-8 -5 -10 -10 -5 -10 6 0 17 5 25 10 8 5 11 10 5 10 -5
0 -17 -5 -25 -10z"/>
<path d="M4783 5600 c-11 -16 -10 -18 2 -14 8 4 15 10 15 15 0 5 7 9 17 9 14
0 14 -2 -2 -20 -10 -11 -25 -20 -34 -21 -11 0 -12 -2 -3 -6 7 -3 21 2 32 12
13 12 20 13 25 5 4 -7 1 -16 -6 -21 -7 -4 -10 -11 -6 -16 5 -4 12 -1 17 7 8
12 14 11 42 -8 l33 -23 -27 25 c-15 13 -24 26 -20 29 4 2 2 3 -4 1 -17 -4 -33
16 -27 32 8 22 -40 17 -54 -6z"/>
<path d="M4860 5616 c0 -2 7 -7 16 -10 8 -3 12 -2 9 4 -6 10 -25 14 -25 6z"/>
<path d="M4917 5609 c-13 -8 -15 -14 -7 -30 6 -11 8 -25 4 -31 -5 -7 -3 -8 5
-4 7 5 10 14 7 21 -2 7 -2 16 2 19 5 6 13 37 9 36 -1 0 -10 -5 -20 -11z"/>
<path d="M4994 5598 c-4 -7 -4 -10 1 -6 4 4 15 2 24 -5 14 -11 14 -10 2 6 -16
20 -18 21 -27 5z"/>
<path d="M4644 5589 c-7 -11 27 -11 45 0 9 6 5 9 -13 9 -15 0 -29 -4 -32 -9z"/>
<path d="M4720 5590 c13 -8 13 -9 0 -14 -8 -2 -22 -7 -30 -9 -9 -3 -5 -6 10
-7 l25 -2 -25 -7 c-17 -5 -3 -7 40 -8 l65 0 -45 10 c-25 6 -37 12 -27 14 21 5
22 19 1 27 -23 9 -31 7 -14 -4z"/>
<path d="M4570 5571 c0 -6 -8 -8 -17 -5 -15 5 -16 4 -3 -5 8 -6 11 -11 5 -11
-5 0 -3 -5 5 -10 12 -8 12 -10 -5 -10 -12 0 -16 -3 -9 -8 9 -6 25 -37 26 -52
1 -15 20 -40 31 -40 9 0 8 3 -1 9 -7 4 -12 12 -10 17 1 5 -3 18 -9 29 -16 29
-16 37 -1 46 19 12 30 11 22 -3 -4 -7 -3 -8 5 -4 19 12 1 27 -22 20 -19 -6
-20 -5 -9 9 9 10 10 17 2 22 -5 3 -10 2 -10 -4z"/>
<path d="M4600 5569 c0 -5 5 -7 10 -4 6 3 10 1 10 -4 0 -6 10 -10 23 -10 16 1
18 2 5 6 -10 2 -18 9 -18 14 0 5 -7 9 -15 9 -8 0 -15 -5 -15 -11z"/>
<path d="M4476 5550 c-10 -10 -25 -16 -34 -13 -10 4 -7 -2 7 -16 12 -12 19
-26 16 -31 -4 -6 -1 -10 5 -10 7 0 9 8 5 21 -6 16 -4 20 6 14 11 -6 11 -5 2 5
-9 10 -7 17 10 31 12 10 18 18 12 18 -5 0 -18 -9 -29 -19z"/>
<path d="M5181 5550 c3 -28 -1 -41 -11 -35 -6 3 -7 -1 -4 -10 7 -18 7 -18 22
11 7 13 7 25 1 35 -8 12 -10 12 -8 -1z"/>
<path d="M5363 5533 c0 -9 4 -10 14 -2 7 6 13 12 13 14 0 1 -6 2 -13 2 -8 0
-14 -6 -14 -14z"/>
<path d="M5213 5527 c0 -8 6 -14 14 -14 9 0 10 4 2 14 -6 7 -12 13 -14 13 -1
0 -2 -6 -2 -13z"/>
<path d="M4387 5524 c-3 -3 -3 -12 -1 -19 3 -7 -6 -15 -22 -19 -14 -4 -24 -9
-22 -12 3 -2 17 0 31 5 17 7 28 7 32 1 4 -6 -4 -11 -17 -11 -18 -1 -19 -2 -4
-6 30 -8 42 13 21 37 -15 17 -16 20 -3 20 9 0 18 -7 22 -15 3 -8 11 -15 18
-15 9 0 8 3 -2 10 -8 5 -10 10 -5 10 13 0 -17 20 -31 20 -6 0 -13 -3 -17 -6z"/>
<path d="M4508 5523 c7 -3 16 -2 19 1 4 3 -2 6 -13 5 -11 0 -14 -3 -6 -6z"/>
<path d="M4859 5518 c-1 -2 -2 -31 -3 -66 -1 -39 1 -57 7 -47 4 8 5 24 2 35
-3 11 -1 28 5 40 8 14 8 20 0 20 -6 0 -8 5 -5 10 3 6 4 10 1 10 -3 0 -7 -1 -7
-2z"/>
<path d="M4306 5501 c-19 -7 -19 -8 2 -13 14 -4 20 -2 15 5 -4 6 0 8 10 4 10
-3 17 -2 17 3 0 12 -17 12 -44 1z"/>
<path d="M5295 5500 c4 -6 11 -8 16 -5 14 9 11 15 -7 15 -8 0 -12 -5 -9 -10z"/>
<path d="M5331 5490 c-18 -16 -27 -18 -37 -9 -9 7 -14 8 -14 1 0 -16 58 -33
66 -20 5 7 2 8 -6 3 -8 -5 -11 -3 -8 6 3 8 10 13 15 12 5 -1 10 5 10 13 0 8
-1 14 -1 14 -1 -1 -12 -10 -25 -20z"/>
<path d="M4205 5490 c3 -5 8 -10 11 -10 2 0 4 5 4 10 0 6 -5 10 -11 10 -5 0
-7 -4 -4 -10z"/>
<path d="M4250 5490 c13 -8 12 -10 -3 -10 -10 0 -20 -7 -23 -15 -4 -8 -10 -15
-16 -15 -5 0 -6 5 -2 11 4 8 -1 9 -17 4 -22 -7 -23 -7 -9 11 14 17 14 18 -2 6
-9 -8 -23 -10 -30 -6 -7 4 -4 -2 7 -13 11 -11 23 -19 27 -16 5 2 16 -1 25 -7
16 -10 16 -11 1 -6 -9 2 -22 -1 -28 -9 -10 -12 -7 -13 17 -6 17 5 37 5 46 -1
13 -7 15 -5 11 6 -3 8 2 16 13 19 15 4 14 5 -4 6 -30 1 -40 21 -10 21 14 0 24
6 24 15 0 9 -9 15 -21 15 -17 0 -18 -2 -6 -10z m-10 -50 c0 -5 -2 -10 -4 -10
-3 0 -8 5 -11 10 -3 6 -1 10 4 10 6 0 11 -4 11 -10z"/>
<path d="M5119 5489 c-12 -7 -12 -9 1 -10 8 -1 21 -1 29 0 8 2 10 -2 5 -10 -4
-8 -3 -10 4 -5 16 10 15 14 -6 25 -11 6 -24 6 -33 0z"/>
<path d="M5230 5479 c0 -5 5 -7 10 -4 6 3 10 8 10 11 0 2 -4 4 -10 4 -5 0 -10
-5 -10 -11z"/>
<path d="M4426 5461 c-3 -4 6 -6 19 -3 14 2 25 6 25 8 0 8 -39 4 -44 -5z"/>
<path d="M4610 5461 c0 -5 5 -13 10 -16 6 -3 10 -2 10 4 0 5 -4 13 -10 16 -5
3 -10 2 -10 -4z"/>
<path d="M4052 5451 c-11 -6 -10 -10 4 -15 9 -3 19 -4 22 -1 3 3 0 5 -7 5 -7
0 -9 5 -6 10 7 12 4 12 -13 1z"/>
<path d="M4093 5453 c4 -3 5 -8 3 -12 -3 -4 0 -13 6 -21 8 -12 9 -12 4 3 -8
25 13 21 24 -5 7 -19 9 -19 9 -5 1 10 6 15 11 12 6 -3 10 -2 10 3 0 5 -10 12
-22 15 -13 2 -30 7 -38 9 -8 3 -12 3 -7 1z"/>
<path d="M5170 5449 c0 -5 -5 -7 -12 -3 -6 4 -9 3 -5 -2 3 -5 -1 -17 -8 -27
-8 -12 -15 -14 -20 -8 -3 6 -11 11 -18 11 -6 0 -2 -6 9 -14 24 -18 10 -34 -16
-18 -28 17 -49 14 -26 -3 19 -14 19 -15 2 -15 -15 0 -16 -3 -6 -15 7 -8 18
-15 24 -15 6 0 6 4 -2 9 -10 6 -6 11 17 19 17 6 31 17 31 23 0 10 3 10 12 1 9
-9 8 -15 -6 -25 -16 -12 -16 -13 3 -13 11 0 17 4 15 8 -3 4 2 8 11 8 9 0 14
-4 11 -9 -4 -5 3 -7 14 -4 11 3 23 10 27 16 4 6 -2 8 -15 5 -13 -4 -23 0 -26
8 -3 8 -12 14 -21 14 -8 0 -15 5 -15 11 0 5 5 7 10 4 6 -4 9 -1 8 6 -2 6 3 14
10 16 7 3 10 -1 6 -10 -3 -8 -1 -18 4 -21 8 -5 9 13 3 47 -2 11 -21 8 -21 -4z"/>
<path d="M5279 5447 c16 -19 41 -23 41 -5 0 6 -3 8 -6 5 -4 -3 -16 -1 -28 5
-19 10 -20 10 -7 -5z"/>
<path d="M4290 5446 c0 -9 39 -13 51 -5 10 6 4 9 -18 9 -18 0 -33 -2 -33 -4z"/>
<path d="M3984 5195 c0 -137 2 -195 3 -128 2 67 2 179 0 250 -1 70 -3 16 -3
-122z"/>
<path d="M4826 5424 c-9 -23 -2 -28 13 -10 7 8 8 17 3 20 -6 3 -13 -1 -16 -10z"/>
<path d="M5220 5431 c0 -6 4 -12 8 -15 5 -3 9 1 9 9 0 8 -4 15 -9 15 -4 0 -8
-4 -8 -9z"/>
<path d="M4278 5423 c7 -3 16 -2 19 1 4 3 -2 6 -13 5 -11 0 -14 -3 -6 -6z"/>
<path d="M4648 5413 c7 -3 16 -2 19 1 4 3 -2 6 -13 5 -11 0 -14 -3 -6 -6z"/>
<path d="M5287 5414 c-3 -3 -3 -12 0 -20 3 -10 0 -12 -10 -8 -10 3 -18 -2 -22
-15 -3 -12 -11 -22 -16 -22 -5 -1 -13 -2 -18 -3 -18 -2 -22 -15 -12 -35 6 -11
7 -22 3 -25 -10 -6 -9 -43 1 -51 4 -3 5 -2 2 2 -3 3 3 12 13 19 15 11 15 16 4
34 -7 12 -11 25 -8 28 3 3 6 1 6 -5 0 -5 6 -10 14 -10 7 0 13 10 13 21 1 39 3
46 14 46 6 0 8 -7 4 -17 -10 -28 10 -2 23 29 10 25 3 46 -11 32z m-37 -84 c0
-5 -4 -10 -10 -10 -5 0 -10 5 -10 10 0 6 5 10 10 10 6 0 10 -4 10 -10z m-20
-60 c0 -5 -2 -10 -4 -10 -3 0 -8 5 -11 10 -3 6 -1 10 4 10 6 0 11 -4 11 -10z"/>
<path d="M4177 5387 c-13 -20 -13 -23 2 -23 10 0 16 9 16 23 0 13 -1 23 -1 23
-1 0 -8 -10 -17 -23z"/>
<path d="M4210 5400 c0 -5 7 -7 15 -4 8 4 15 8 15 10 0 2 -7 4 -15 4 -8 0 -15
-4 -15 -10z"/>
<path d="M4869 5392 c-14 -17 -14 -20 -1 -28 12 -8 9 -10 -11 -10 -22 0 -26 4
-21 19 5 17 4 18 -9 6 -16 -16 -11 -43 8 -35 6 2 17 1 24 -3 10 -6 9 -12 -4
-25 -14 -13 -14 -16 -2 -16 8 0 18 7 21 16 5 13 14 15 39 10 23 -4 28 -3 17 4
-8 5 -22 10 -31 10 -12 0 -16 9 -14 35 1 19 1 35 0 35 0 0 -8 -8 -16 -18z"/>
<path d="M4620 5393 c8 -3 19 -11 23 -17 6 -7 7 -6 4 4 -2 8 -12 16 -23 17
-13 2 -15 1 -4 -4z"/>
<path d="M4660 5391 c0 -6 5 -11 11 -11 8 0 7 -6 -2 -17 -11 -15 -10 -14 9 1
12 11 22 21 22 24 0 3 -3 2 -7 -1 -3 -4 -12 -2 -20 4 -9 9 -13 8 -13 0z"/>
<path d="M5029 5392 c10 -7 10 -14 2 -30 -6 -11 -7 -23 -3 -26 5 -3 9 0 10 7
0 7 2 21 4 31 2 10 -4 21 -12 23 -12 4 -12 3 -1 -5z"/>
<path d="M4946 5378 c4 -6 -2 -8 -17 -3 -19 5 -21 4 -9 -4 13 -9 12 -11 -5
-11 -17 0 -17 -2 -5 -10 21 -13 33 -12 24 2 -5 8 -2 9 10 5 11 -4 15 -3 10 4
-4 8 1 9 16 4 14 -4 20 -3 16 3 -3 5 -15 12 -26 15 -12 3 -18 1 -14 -5z"/>
<path d="M4112 5355 c-6 -14 -17 -25 -23 -25 -8 0 -8 5 1 15 7 9 10 18 7 22
-4 3 -9 -2 -13 -11 -3 -9 -11 -13 -18 -9 -6 4 -5 -1 3 -10 7 -9 20 -17 28 -17
8 0 11 -5 8 -10 -4 -6 -3 -10 2 -9 20 3 34 -2 28 -10 -3 -6 5 -15 17 -21 19
-8 20 -8 7 2 -15 10 -15 13 5 30 11 10 17 18 11 17 -23 -3 -27 2 -14 18 10 11
10 14 2 9 -9 -5 -13 0 -14 16 l0 23 -10 -23 c-5 -13 -7 -28 -4 -33 4 -5 -1 -6
-9 -3 -12 5 -13 10 -5 26 6 11 9 22 6 24 -2 2 -9 -7 -15 -21z m43 -45 c3 -5 1
-10 -4 -10 -6 0 -11 5 -11 10 0 6 2 10 4 10 3 0 8 -4 11 -10z"/>
<path d="M4213 5365 c0 -8 3 -13 5 -10 9 9 32 -17 25 -28 -4 -6 -1 -7 6 -2 9
5 7 13 -10 31 -27 28 -26 28 -26 9z"/>
<path d="M4575 5373 c10 -3 29 -12 41 -20 18 -11 24 -12 30 -1 4 7 4 10 -1 6
-4 -4 -14 -1 -22 7 -8 8 -26 14 -41 14 -21 -1 -22 -2 -7 -6z"/>
<path d="M4013 5349 c9 -5 17 -18 17 -27 0 -15 2 -15 10 -2 12 19 13 33 1 25
-5 -3 -12 -1 -16 5 -3 5 -12 10 -18 10 -7 0 -4 -5 6 -11z"/>
<path d="M4719 5348 c7 -10 10 -18 5 -18 -4 0 -3 -5 4 -12 7 -7 8 -16 2 -23
-6 -7 0 -11 18 -12 24 -1 24 -1 7 7 -11 5 -16 9 -11 9 5 1 3 7 -3 14 -6 8 -9
16 -6 19 3 3 -3 11 -12 19 -16 13 -17 12 -4 -3z"/>
<path d="M4530 5340 c0 -5 7 -7 15 -4 8 4 15 8 15 10 0 2 -7 4 -15 4 -8 0 -15
-4 -15 -10z"/>
<path d="M4579 5338 c-1 -7 -1 -20 0 -28 1 -12 -1 -11 -12 2 -8 10 -17 15 -20
11 -9 -9 -9 -23 1 -22 4 1 10 0 15 -1 4 -1 13 -3 20 -4 6 -1 11 -7 10 -12 -1
-6 14 -26 33 -44 26 -26 37 -31 46 -22 9 9 16 8 31 -6 19 -16 20 -16 9 4 -8
14 -8 24 -1 31 7 7 5 12 -5 16 -10 4 -13 1 -9 -9 3 -8 -1 -14 -11 -14 -9 0
-15 6 -13 13 1 7 -7 11 -18 10 -23 -2 -38 17 -25 32 5 6 5 17 -1 25 -8 12 -9
11 -7 -4 2 -10 -3 -21 -11 -24 -8 -3 -11 0 -7 7 9 14 -2 51 -15 51 -5 0 -10
-6 -10 -12z m21 -18 c0 -5 -2 -10 -4 -10 -3 0 -8 5 -11 10 -3 6 -1 10 4 10 6
0 11 -4 11 -10z m31 -62 c10 -13 18 -17 19 -10 0 21 16 13 16 -8 0 -27 -7 -25
-41 10 -16 17 -25 30 -21 30 4 0 16 -10 27 -22z"/>
<path d="M4970 5340 c-23 -7 -23 -8 -3 -9 12 -1 25 4 28 9 3 6 5 10 3 9 -2 -1
-14 -5 -28 -9z"/>
<path d="M4005 5320 c-3 -5 -1 -10 4 -10 6 0 11 5 11 10 0 6 -2 10 -4 10 -3 0
-8 -4 -11 -10z"/>
<path d="M4821 5313 c0 -10 3 -25 7 -34 6 -14 9 -15 20 -3 11 12 10 14 -4 14
-11 0 -15 6 -11 20 3 11 1 20 -4 20 -5 0 -9 -8 -8 -17z"/>
<path d="M4231 5283 c-22 -27 -30 -33 -31 -20 0 21 -17 23 -17 2 0 -8 10 -24
22 -35 17 -16 22 -17 22 -6 0 8 -5 12 -10 9 -5 -3 -8 0 -6 6 3 7 7 11 10 9 3
-2 13 3 21 10 9 7 22 10 30 7 10 -4 17 1 21 15 4 15 10 19 19 14 10 -6 9 -3
-1 10 -10 12 -17 14 -25 6 -13 -13 -29 -13 -21 0 14 23 -5 7 -34 -27z m57 8
c-8 -13 -16 -17 -24 -11 -6 6 -15 6 -19 2 -5 -4 -5 -2 -1 5 4 7 13 10 20 7 8
-3 17 -1 21 5 3 6 8 11 11 11 2 0 -1 -9 -8 -19z"/>
<path d="M4504 5286 c-3 -13 -4 -33 -1 -43 3 -12 5 -8 6 10 0 16 5 26 11 22 6
-3 10 1 10 9 0 26 -19 28 -26 2z"/>
<path d="M4918 5303 c7 -3 16 -2 19 1 4 3 -2 6 -13 5 -11 0 -14 -3 -6 -6z"/>
<path d="M4005 5290 c4 -6 11 -7 17 -4 6 4 5 -3 -2 -15 -6 -12 -9 -27 -6 -34
2 -7 5 -5 5 4 1 9 8 22 16 29 18 15 10 30 -16 30 -11 0 -17 -5 -14 -10z"/>
<path d="M5090 5235 c0 -31 5 -47 15 -51 8 -4 15 -12 15 -20 0 -8 5 -14 11
-14 6 0 8 -8 5 -17 -6 -17 -5 -17 7 -1 8 10 17 15 21 11 4 -4 4 1 0 11 -5 13
-4 17 3 13 7 -4 10 0 8 10 -2 10 -4 21 -4 26 -2 15 -21 6 -21 -10 -1 -16 -2
-16 -15 1 -8 11 -15 14 -15 8 0 -7 -5 -12 -11 -12 -7 0 -10 17 -7 45 2 25 0
45 -4 45 -5 0 -8 -20 -8 -45z m69 -52 c14 11 15 10 1 -8 -8 -11 -15 -22 -16
-23 -1 -2 -8 7 -14 20 -10 19 -10 21 1 11 10 -10 16 -10 28 0z"/>
<path d="M4324 5246 c0 -12 -4 -30 -8 -41 -5 -14 -3 -14 5 3 18 33 36 26 30
-11 -1 -5 3 -7 9 -5 7 2 12 8 12 13 1 6 8 16 17 23 14 11 13 12 -6 2 -18 -8
-24 -7 -33 10 -12 22 -1 27 20 8 12 -11 12 -10 1 4 -17 23 -46 19 -47 -6z"/>
<path d="M4477 5262 c-11 -17 -16 -62 -7 -67 4 -3 7 3 5 12 -1 10 2 26 7 36
10 19 5 36 -5 19z"/>
<path d="M4295 5240 c-3 -5 -1 -10 4 -10 6 0 11 5 11 10 0 6 -2 10 -4 10 -3 0
-8 -4 -11 -10z"/>
<path d="M4833 5239 c14 -8 16 -14 6 -25 -6 -7 -15 -12 -19 -9 -5 3 -11 2 -14
-3 -2 -4 8 -8 23 -7 19 0 27 4 24 13 -3 8 0 10 10 6 9 -3 13 -12 11 -19 -3 -7
-1 -16 5 -19 6 -4 8 -14 5 -24 -5 -14 -4 -15 5 -2 9 13 11 13 11 -2 0 -9 -6
-19 -12 -22 -7 -3 0 -4 15 -1 16 3 26 2 24 -2 -3 -5 12 -8 34 -8 l38 0 -31 32
c-17 18 -34 30 -38 28 -8 -5 -36 23 -42 40 -2 6 -7 9 -11 7 -4 -1 -15 4 -23
13 -9 8 -21 15 -27 15 -7 0 -4 -5 6 -11z m99 -79 c2 6 15 -1 28 -16 14 -15 18
-23 10 -19 -8 5 -22 10 -32 10 -18 2 -57 42 -58 60 0 6 11 -3 24 -18 13 -15
26 -23 28 -17z"/>
<path d="M4401 5216 c-9 -11 -9 -16 1 -22 7 -4 10 -4 6 1 -4 4 -3 14 3 22 6 7
9 13 6 13 -2 0 -10 -6 -16 -14z"/>
<path d="M4808 5223 c7 -3 16 -2 19 1 4 3 -2 6 -13 5 -11 0 -14 -3 -6 -6z"/>
<path d="M4022 5190 c0 -19 2 -27 5 -17 2 9 2 25 0 35 -3 9 -5 1 -5 -18z"/>
<path d="M4270 5206 c0 -8 6 -16 14 -19 10 -4 12 0 9 14 -6 22 -23 26 -23 5z"/>
<path d="M4677 5206 c-4 -9 -3 -15 1 -14 16 3 41 -15 35 -25 -4 -6 -1 -7 7 -2
10 6 12 4 7 -8 -3 -9 -3 -16 1 -16 19 3 33 -2 27 -10 -3 -5 -1 -12 4 -15 18
-12 21 13 3 26 -10 7 -21 21 -25 31 -3 9 -13 17 -21 17 -8 0 -19 7 -24 16 -8
15 -10 15 -15 0z"/>
<path d="M4753 5175 c0 -8 2 -13 5 -10 3 2 14 -7 25 -21 17 -22 18 -28 6 -36
-12 -8 -12 -9 1 -5 8 2 18 19 21 39 5 31 3 35 -15 33 -12 0 -26 2 -32 7 -6 4
-11 2 -11 -7z m41 -21 c3 -8 2 -12 -4 -9 -6 3 -10 10 -10 16 0 14 7 11 14 -7z"/>
<path d="M4485 5170 c3 -5 8 -10 11 -10 2 0 4 5 4 10 0 6 -5 10 -11 10 -5 0
-7 -4 -4 -10z"/>
<path d="M5083 5145 c-12 -27 -5 -33 15 -13 9 9 12 8 12 -5 0 -15 -12 -22 -33
-18 -5 1 -5 -3 -2 -10 4 -6 -2 -19 -14 -30 -19 -18 -25 -17 -23 3 1 3 -6 12
-15 20 -12 9 -15 9 -9 1 4 -7 2 -13 -3 -13 -6 0 -11 6 -11 13 0 6 -5 4 -11 -6
-6 -9 -15 -15 -21 -11 -7 4 -6 0 1 -13 6 -11 7 -24 3 -28 -4 -4 3 -3 14 3 12
6 24 8 28 5 3 -3 6 -1 6 6 0 8 -8 10 -22 6 -21 -5 -21 -5 -5 5 14 9 22 9 35
-3 9 -7 25 -17 34 -20 11 -4 15 -12 11 -22 -5 -14 -8 -14 -15 -3 -8 11 -9 10
-6 -1 2 -8 11 -15 20 -17 11 -1 15 3 11 14 -4 8 -2 13 3 9 6 -3 10 3 11 13 1
11 -2 22 -8 25 -5 4 -6 -2 -2 -12 6 -16 5 -17 -11 -4 -16 14 -16 16 -2 27 9 6
16 17 16 23 0 7 5 9 10 6 6 -3 10 0 10 7 0 10 3 9 9 -2 6 -8 7 -18 5 -22 -3
-4 -3 -8 0 -8 3 0 10 10 17 21 7 13 7 19 1 15 -6 -4 -18 9 -28 29 -9 19 -17
35 -18 35 0 0 -6 -11 -13 -25z"/>
<path d="M4833 5115 c1 -27 2 -42 5 -32 2 9 8 17 14 17 5 0 8 -7 4 -15 -3 -8
0 -15 7 -15 7 0 13 9 13 19 0 11 -3 19 -6 19 -21 -2 -29 6 -33 30 -2 15 -4 5
-4 -23z"/>
<path d="M4270 5141 c0 -7 -6 -9 -12 -6 -7 4 -4 -2 8 -12 11 -10 23 -25 27
-33 4 -11 6 -10 6 4 1 12 6 16 16 13 8 -4 17 -2 20 4 4 5 3 9 -2 8 -4 -1 -15
-1 -23 0 -13 1 -13 3 0 12 13 9 13 10 -1 6 -9 -3 -22 0 -28 6 -8 8 -11 8 -11
-2z m25 -21 c3 -6 -1 -7 -9 -4 -18 7 -21 14 -7 14 6 0 13 -4 16 -10z"/>
<path d="M4005 5130 c-3 -5 -1 -10 4 -10 6 0 11 5 11 10 0 6 -2 10 -4 10 -3 0
-8 -4 -11 -10z"/>
<path d="M4481 5124 c0 -11 3 -14 6 -6 3 7 2 16 -1 19 -3 4 -6 -2 -5 -13z"/>
<path d="M4174 5110 c-6 -6 -24 -12 -41 -14 -17 -3 -43 -12 -57 -21 -22 -15
-29 -15 -43 -4 -11 10 -14 10 -9 2 4 -7 2 -13 -3 -13 -6 0 -11 -8 -11 -17 0
-16 1 -16 13 0 8 12 16 14 27 7 12 -8 12 -10 -5 -10 -18 -1 -19 -1 -2 -11 23
-14 42 -2 26 17 -7 9 -8 14 -1 14 6 0 14 -5 17 -10 4 -7 13 -7 26 0 11 6 25 8
32 3 8 -5 3 -9 -13 -13 -19 -5 -21 -7 -9 -12 22 -9 44 6 33 23 -18 29 -13 39
19 36 24 -1 32 2 34 18 3 18 3 18 -7 3 -6 -10 -16 -18 -22 -18 -7 0 -6 5 2 15
14 17 9 20 -6 5z m-59 -46 c-10 -7 -22 -11 -28 -7 -6 3 -3 11 8 19 10 7 22 11
28 7 6 -3 3 -11 -8 -19z"/>
<path d="M4000 5106 c0 -2 7 -7 16 -10 8 -3 12 -2 9 4 -6 10 -25 14 -25 6z"/>
<path d="M4225 5097 c3 -7 -5 -19 -20 -27 -14 -7 -25 -17 -25 -22 0 -5 14 1
30 14 32 23 36 33 20 43 -5 3 -7 0 -5 -8z"/>
<path d="M4752 5075 c-2 -27 -1 -28 22 -19 9 3 13 11 9 17 -4 6 2 8 15 5 15
-4 22 -2 22 8 0 17 -29 8 -49 -15 -12 -14 -12 -13 -6 7 3 12 3 22 -2 22 -5 0
-10 -11 -11 -25z"/>
<path d="M4658 5073 c7 -3 16 -2 19 1 4 3 -2 6 -13 5 -11 0 -14 -3 -6 -6z"/>
<path d="M4708 5059 c10 -25 26 -26 29 -2 2 15 1 15 -6 -2 -9 -19 -10 -19 -10
3 -1 12 -5 22 -11 22 -5 0 -6 -9 -2 -21z"/>
<path d="M5100 5071 c0 -6 4 -13 10 -16 6 -3 7 1 4 9 -7 18 -14 21 -14 7z"/>
<path d="M4563 5055 c-19 -14 36 -12 61 2 16 9 13 10 -14 9 -18 0 -39 -5 -47
-11z"/>
<path d="M4239 5053 c-8 -46 -6 -52 12 -42 11 5 18 19 18 32 l-2 22 -4 -22
c-2 -13 -8 -23 -13 -23 -4 0 -6 9 -3 20 3 11 3 20 -1 20 -3 0 -7 -3 -7 -7z"/>
<path d="M4281 5038 c-1 -15 4 -30 11 -34 7 -5 5 -11 -7 -21 -11 -7 -13 -13
-6 -13 7 0 9 -5 5 -12 -4 -7 2 -5 13 5 11 9 23 14 27 10 4 -5 7 -3 6 2 -4 19
0 35 9 35 4 0 6 -17 4 -37 -2 -21 -1 -35 2 -31 3 3 7 18 9 34 2 15 9 30 16 32
7 3 10 0 6 -6 -5 -8 2 -8 24 -1 27 10 33 29 9 29 -6 0 -7 -4 -4 -10 3 -5 0
-10 -8 -10 -10 0 -13 7 -10 20 4 14 0 20 -11 20 -19 0 -21 -16 -3 -24 6 -3 0
-3 -15 0 -17 4 -28 2 -28 -5 0 -17 -31 0 -40 23 -8 19 -9 19 -9 -6z m39 -37
c0 -5 -8 -15 -17 -22 -16 -12 -17 -12 -6 2 7 9 10 19 6 22 -3 4 -1 7 5 7 7 0
12 -4 12 -9z"/>
<path d="M4668 5053 c7 -3 16 -2 19 1 4 3 -2 6 -13 5 -11 0 -14 -3 -6 -6z"/>
<path d="M4858 5053 c7 -3 16 -2 19 1 4 3 -2 6 -13 5 -11 0 -14 -3 -6 -6z"/>
<path d="M4520 5025 c7 -8 18 -15 24 -14 7 0 6 2 -2 6 -6 2 -10 9 -6 14 3 5
-2 9 -12 9 -13 0 -14 -3 -4 -15z"/>
<path d="M4640 5030 c-8 -5 -10 -10 -5 -10 6 0 17 5 25 10 8 5 11 10 5 10 -5
0 -17 -5 -25 -10z"/>
<path d="M4853 5021 c-10 -16 -9 -19 5 -16 9 2 23 4 30 4 6 1 12 6 12 12 0 6
-6 9 -14 6 -8 -3 -16 -2 -18 4 -2 5 -8 1 -15 -10z"/>
<path d="M4171 5019 c-1 -9 7 -23 17 -30 15 -12 16 -12 6 1 -6 8 -14 22 -17
30 -5 13 -6 12 -6 -1z"/>
<path d="M4010 5010 c0 -5 5 -10 10 -10 6 0 10 5 10 10 0 6 -4 10 -10 10 -5 0
-10 -4 -10 -10z"/>
<path d="M4084 5008 c-4 -7 -3 -8 4 -4 7 4 12 2 12 -3 0 -6 -5 -11 -12 -11 -9
0 -9 -3 -1 -11 15 -15 34 -2 26 18 -4 11 -3 14 5 9 7 -4 12 -2 12 3 0 15 -37
14 -46 -1z"/>
<path d="M4452 5008 c2 -7 8 -17 13 -21 6 -5 -6 -6 -25 -3 -26 5 -30 4 -15 -3
12 -6 14 -10 6 -10 -8 -1 -12 -3 -9 -6 3 -3 17 -1 31 4 26 10 31 41 8 49 -6 2
-10 -2 -9 -10z"/>
<path d="M4651 5011 c-8 -5 -9 -11 -3 -15 5 -3 12 1 16 9 6 17 6 18 -13 6z"/>
<path d="M4040 4971 c0 -12 5 -21 10 -21 6 0 10 6 10 14 0 8 -4 18 -10 21 -5
3 -10 -3 -10 -14z"/>
<path d="M4634 4970 c0 -13 4 -16 10 -10 7 7 7 13 0 20 -6 6 -10 3 -10 -10z"/>
<path d="M4680 4970 c6 -11 13 -20 16 -20 2 0 0 9 -6 20 -6 11 -13 20 -16 20
-2 0 0 -9 6 -20z"/>
<path d="M4004 4943 c0 -35 2 -39 13 -25 15 20 17 36 4 27 -5 -3 -11 5 -14 17
-2 13 -4 4 -3 -19z"/>
<path d="M4480 4960 c0 -5 5 -10 11 -10 5 0 7 5 4 10 -3 6 -8 10 -11 10 -2 0
-4 -4 -4 -10z"/>
<path d="M4355 4930 c-4 -12 -5 -24 -2 -27 3 -2 8 5 12 17 4 12 5 24 2 27 -3
2 -8 -5 -12 -17z"/>
<path d="M4498 4938 c-10 -7 -9 -8 2 -5 8 2 23 0 32 -4 11 -6 19 -5 24 3 4 7
3 8 -4 4 -7 -4 -12 -3 -12 2 0 11 -26 11 -42 0z"/>
<path d="M4723 4935 c0 -8 4 -12 9 -9 5 3 6 10 3 15 -9 13 -12 11 -12 -6z"/>
<path d="M5020 4946 c0 -2 8 -10 18 -17 15 -13 16 -12 3 4 -13 16 -21 21 -21
13z"/>
<path d="M4278 4904 c-2 -19 0 -37 4 -40 4 -3 8 11 8 31 0 25 4 34 12 29 7 -4
8 -3 4 4 -13 22 -24 12 -28 -24z"/>
<path d="M4834 4928 c-4 -7 -3 -10 1 -5 5 4 16 0 25 -8 15 -13 17 -13 17 0 0
8 -3 13 -5 10 -3 -3 -11 0 -18 6 -9 7 -14 6 -20 -3z"/>
<path d="M4026 4912 c-3 -5 1 -9 9 -9 8 0 12 4 9 9 -3 4 -7 8 -9 8 -2 0 -6 -4
-9 -8z"/>
<path d="M4729 4903 c-11 -15 -11 -16 1 -5 17 15 31 16 28 1 -2 -6 3 -13 10
-14 7 -2 8 -1 3 1 -6 3 -7 12 -4 20 8 20 -22 18 -38 -3z"/>
<path d="M4990 4908 c0 -5 10 -6 23 -2 22 7 22 6 3 -15 -23 -25 -21 -25 -40
-5 -14 14 -15 12 -12 -16 4 -38 20 -57 31 -39 5 7 4 10 -2 6 -12 -8 -27 22
-17 32 4 3 9 0 11 -6 3 -7 10 -13 16 -13 5 0 7 3 4 7 -4 3 3 17 15 30 12 13
20 24 17 24 -20 6 -49 4 -49 -3z"/>
<path d="M4839 4901 c7 -5 11 -14 7 -20 -5 -7 -1 -9 8 -5 9 4 18 -1 22 -10 3
-9 10 -13 15 -10 14 8 11 24 -5 24 -7 0 -19 7 -26 15 -7 8 -18 15 -24 15 -6 0
-5 -4 3 -9z"/>
<path d="M4010 4880 c-9 -6 -10 -10 -3 -10 6 0 15 5 18 10 8 12 4 12 -15 0z"/>
<path d="M4525 4870 c-10 -11 -22 -17 -27 -14 -4 3 -7 0 -6 -7 3 -12 -1 -14
-34 -18 -9 -1 -8 -4 2 -11 10 -7 11 -10 2 -10 -7 0 -18 -12 -24 -27 -7 -16
-21 -38 -32 -50 -11 -13 -16 -23 -11 -23 4 0 16 10 26 22 15 16 19 18 19 5 0
-8 -5 -18 -10 -20 -6 -3 -5 -4 2 -3 8 2 12 16 10 35 -2 30 -1 31 14 17 22 -22
31 -20 11 2 -21 23 -22 39 -2 22 13 -11 14 -10 9 4 -4 9 -2 16 4 14 5 -2 11 2
12 7 2 15 42 55 50 50 4 -2 7 2 7 10 0 19 0 19 -22 -5z"/>
<path d="M4301 4850 c0 -24 3 -29 8 -17 4 10 11 18 16 17 5 -1 11 4 14 11 2 8
-2 10 -12 6 -9 -3 -18 -1 -21 6 -2 7 -4 -4 -5 -23z"/>
<path d="M3984 4710 c0 -91 2 -128 3 -82 2 45 2 119 0 165 -1 45 -3 8 -3 -83z"/>
<path d="M4360 4855 c0 -8 -4 -15 -10 -15 -5 0 -10 -4 -10 -10 0 -19 17 -10
28 15 7 15 8 25 2 25 -6 0 -10 -7 -10 -15z"/>
<path d="M4082 4849 c2 -7 12 -13 21 -15 23 -3 21 3 -4 17 -17 8 -20 8 -17 -2z"/>
<path d="M4546 4838 c-6 -19 -4 -49 3 -43 6 7 10 55 4 55 -2 0 -5 -6 -7 -12z"/>
<path d="M4690 4838 c0 -4 4 -8 9 -8 6 0 12 4 15 8 3 5 -1 9 -9 9 -8 0 -15 -4
-15 -9z"/>
<path d="M4513 4823 c-3 -10 -8 -21 -10 -25 -2 -4 2 -5 9 -3 8 3 14 14 14 25
0 25 -5 25 -13 3z"/>
<path d="M4376 4813 c-5 -11 0 -22 11 -31 15 -11 16 -14 3 -22 -8 -5 -11 -12
-8 -16 4 -3 15 1 24 11 15 14 15 18 3 26 -8 5 -17 9 -21 9 -3 0 -4 9 -1 20 7
24 -2 27 -11 3z"/>
<path d="M4905 4820 c3 -5 8 -10 11 -10 2 0 4 5 4 10 0 6 -5 10 -11 10 -5 0
-7 -4 -4 -10z"/>
<path d="M4088 4812 c18 -6 14 -29 -9 -51 -12 -11 -18 -25 -14 -31 5 -8 13 0
23 21 9 17 18 27 20 21 2 -6 13 -2 27 10 31 27 24 38 -23 36 -20 -1 -31 -3
-24 -6z m52 -13 c0 -4 -6 -9 -13 -12 -8 -3 -14 0 -14 7 0 7 6 13 14 13 7 0 13
-4 13 -8z"/>
<path d="M4320 4804 c0 -8 5 -12 10 -9 6 4 8 11 5 16 -9 14 -15 11 -15 -7z"/>
<path d="M4950 4816 c0 -2 8 -10 18 -17 15 -13 16 -12 3 4 -13 16 -21 21 -21
13z"/>
<path d="M4874 4796 c-8 -9 -8 -17 1 -30 12 -16 15 -15 40 10 17 17 21 24 10
20 -10 -3 -23 -2 -29 3 -7 6 -15 4 -22 -3z m26 -16 c0 -5 -4 -10 -10 -10 -5 0
-10 5 -10 10 0 6 5 10 10 10 6 0 10 -4 10 -10z"/>
<path d="M4161 4776 c-9 -10 -9 -15 -1 -18 7 -2 3 -13 -9 -27 -25 -29 -27 -39
-4 -20 9 8 19 14 22 14 3 0 5 5 3 10 -1 6 7 11 18 11 11 0 20 -3 20 -6 -1 -11
-39 -50 -47 -48 -4 2 -9 -1 -10 -7 -1 -5 5 -9 14 -7 10 2 14 -2 10 -11 -3 -8
3 -21 13 -29 10 -9 20 -22 23 -29 4 -12 7 -12 18 0 9 9 9 11 2 7 -16 -9 -18
20 -2 30 7 4 0 17 -17 35 -15 16 -23 29 -16 29 6 0 14 -5 17 -11 5 -7 15 -3
29 10 12 12 26 18 31 14 4 -5 2 2 -4 15 -13 24 -24 30 -15 8 5 -14 -10 -29
-34 -32 -8 -2 -11 4 -7 15 5 18 -10 38 -30 40 -5 1 -9 6 -7 11 3 14 -4 12 -17
-4z m53 -105 c19 -21 8 -35 -18 -25 -12 5 -14 10 -6 19 8 9 7 14 -2 18 -7 3
-8 6 -2 6 6 1 19 -8 28 -18z"/>
<path d="M4275 4779 c-4 -6 -5 -12 -2 -15 2 -3 7 2 10 11 7 17 1 20 -8 4z"/>
<path d="M4925 4765 c-14 -13 -25 -30 -25 -37 0 -9 -3 -9 -11 2 -9 13 -10 12
-5 -2 3 -10 2 -18 -3 -18 -4 0 -8 -7 -8 -15 0 -8 5 -11 10 -8 6 4 8 0 4 -10
-3 -9 -2 -19 3 -22 5 -3 7 9 5 26 -4 25 -2 29 9 19 11 -9 17 -4 30 21 19 37
20 42 6 34 -17 -11 -11 7 8 21 9 7 13 14 9 14 -4 0 -19 -11 -32 -25z m-2 -43
c-3 -12 -9 -19 -14 -16 -5 3 -4 14 2 25 13 26 20 21 12 -9z"/>
<path d="M4291 4758 c-14 -23 -14 -23 8 -4 22 20 25 26 13 26 -4 0 -13 -10
-21 -22z"/>
<path d="M4097 4743 c-11 -11 -8 -20 7 -20 8 0 12 6 9 14 -6 15 -7 15 -16 6z"/>
<path d="M4300 4735 c-7 -9 -10 -18 -7 -22 4 -3 10 2 13 11 5 14 9 15 15 5 4
-8 11 -11 14 -8 3 4 -1 11 -8 18 -11 9 -17 8 -27 -4z"/>
<path d="M4025 4700 c-3 -5 -1 -10 4 -10 6 0 11 5 11 10 0 6 -2 10 -4 10 -3 0
-8 -4 -11 -10z"/>
<path d="M4304 4679 c-3 -6 -2 -15 3 -20 5 -5 9 -1 9 11 0 23 -2 24 -12 9z"/>
<path d="M4838 4658 c-2 -27 -7 -32 -23 -30 l-20 4 20 -16 c17 -12 18 -17 6
-28 -12 -11 -13 -10 -9 2 4 11 -1 16 -13 17 -18 2 -18 1 -1 -17 34 -37 44 -29
48 38 4 64 -2 87 -8 30z"/>
<path d="M4011 4622 c-1 -7 6 -15 14 -18 8 -4 12 -10 9 -15 -3 -5 -1 -9 4 -9
6 0 13 7 16 16 3 8 2 12 -4 9 -6 -3 -10 -1 -10 4 0 6 5 11 12 11 6 0 8 3 5 6
-4 4 -13 2 -21 -5 -11 -9 -15 -9 -19 1 -4 10 -6 10 -6 0z"/>
<path d="M4007 4577 c-6 -15 2 -25 31 -42 11 -6 12 -4 3 11 -24 43 -28 47 -34
31z"/>
<path d="M4778 4563 c7 -3 16 -2 19 1 4 3 -2 6 -13 5 -11 0 -14 -3 -6 -6z"/>
<path d="M4220 4550 c0 -5 5 -10 11 -10 5 0 7 5 4 10 -3 6 -8 10 -11 10 -2 0
-4 -4 -4 -10z"/>
<path d="M4305 4550 c3 -5 8 -10 11 -10 2 0 4 5 4 10 0 6 -5 10 -11 10 -5 0
-7 -4 -4 -10z"/>
<path d="M4808 4542 c-3 -11 0 -19 7 -19 7 0 10 8 7 19 -2 10 -6 18 -7 18 -1
0 -5 -8 -7 -18z"/>
<path d="M4128 4533 c7 -3 16 -2 19 1 4 3 -2 6 -13 5 -11 0 -14 -3 -6 -6z"/>
<path d="M4055 4520 c-3 -5 -13 -6 -23 -3 -9 3 -14 3 -10 -1 6 -7 28 -13 52
-15 15 -1 -3 -15 -24 -18 -11 -2 -20 2 -20 7 0 6 -4 10 -8 10 -5 0 -9 -6 -9
-13 0 -9 13 -13 38 -13 21 0 35 4 32 10 -4 5 3 7 15 4 12 -4 22 -2 22 3 0 5
-9 9 -20 9 -11 0 -20 7 -20 15 0 17 -16 20 -25 5z"/>
<path d="M4090 4520 c0 -5 5 -10 11 -10 5 0 7 5 4 10 -3 6 -8 10 -11 10 -2 0
-4 -4 -4 -10z"/>
<path d="M4145 4514 c-14 -11 -16 -18 -7 -21 6 -3 10 -9 7 -14 -4 -5 1 -6 10
-3 12 5 13 9 4 20 -9 11 -8 14 5 14 9 0 16 5 16 10 0 14 -12 12 -35 -6z"/>
<path d="M3982 3878 c1 -343 4 -546 5 -453 7 431 7 1075 1 1075 -5 0 -7 -280
-6 -622z"/>
<path d="M4728 4462 c-7 -35 -2 -59 12 -55 17 5 -32 -42 -52 -50 -10 -4 -10
-8 2 -16 13 -10 8 -15 -12 -12 -4 0 -5 -6 -1 -15 5 -14 3 -15 -14 -6 -15 8
-20 8 -20 -2 0 -7 7 -13 16 -12 11 1 15 -7 14 -24 -2 -22 -2 -23 6 -5 5 11 7
23 4 28 -2 4 1 7 6 7 6 0 10 4 9 9 -2 5 6 17 17 25 l20 16 -20 -6 c-15 -5 -13
-1 9 20 16 14 30 36 31 48 1 13 3 30 4 38 1 13 2 13 12 0 8 -12 10 -12 7 -1
-4 15 -47 26 -50 13z m22 -18 c0 -8 -4 -12 -10 -9 -5 3 -10 10 -10 16 0 5 5 9
10 9 6 0 10 -7 10 -16z"/>
<path d="M4688 4383 c7 -3 16 -2 19 1 4 3 -2 6 -13 5 -11 0 -14 -3 -6 -6z"/>
<path d="M4645 4240 c3 -5 8 -10 11 -10 2 0 4 5 4 10 0 6 -5 10 -11 10 -5 0
-7 -4 -4 -10z"/>
<path d="M4583 4215 c6 -7 15 -11 20 -8 13 8 7 19 -13 20 -16 1 -17 -1 -7 -12z"/>
<path d="M4615 4200 c-3 -5 -2 -18 4 -27 7 -14 9 -12 8 10 -2 30 -3 31 -12 17z"/>
<path d="M4576 4187 c3 -10 9 -15 12 -12 3 3 0 11 -7 18 -10 9 -11 8 -5 -6z"/>
<path d="M4547 4173 c-10 -9 -9 -23 2 -23 5 0 11 7 15 15 5 15 -5 20 -17 8z"/>
<path d="M4558 4146 c-10 -7 -18 -16 -18 -20 0 -9 36 -1 52 12 8 6 18 10 22 7
3 -3 2 1 -4 7 -7 9 -14 7 -26 -8 -13 -16 -15 -16 -10 -1 6 20 6 20 -16 3z"/>
<path d="M4563 4103 c4 -6 -2 -18 -12 -27 -13 -11 -21 -14 -26 -7 -3 6 -12 11
-18 11 -7 0 -3 -6 8 -12 19 -12 19 -12 -5 -19 -24 -7 -24 -7 5 -8 29 -2 29 -2
11 -16 -11 -8 -15 -15 -10 -15 17 0 33 22 27 36 -4 10 0 12 13 8 16 -5 16 -4
4 5 -8 6 -10 11 -4 11 17 0 25 28 12 36 -6 4 -8 3 -5 -3z"/>
<path d="M4480 4013 c0 -13 -6 -23 -12 -23 -7 -1 -2 -7 12 -15 26 -14 56 -3
44 17 -4 6 -10 6 -17 -1 -6 -6 -16 -11 -21 -11 -6 0 -5 4 3 9 10 7 11 13 2 27
-10 18 -10 18 -11 -3z"/>
<path d="M4460 3953 c8 -3 20 -10 27 -15 7 -6 14 -5 19 3 4 7 3 9 -4 5 -6 -3
-13 -2 -17 4 -3 5 -14 10 -23 9 -14 0 -14 -2 -2 -6z"/>
<path d="M4444 3896 c-5 -14 -9 -15 -16 -4 -6 9 -7 6 -3 -9 4 -14 2 -23 -4
-23 -6 0 -11 5 -11 12 0 6 -3 9 -6 5 -3 -3 -2 -13 4 -23 6 -11 12 -13 16 -6 4
6 14 8 24 5 14 -6 15 -4 5 8 -10 12 -10 18 -1 27 6 6 9 15 5 18 -4 4 -10 -1
-13 -10z"/>
<path d="M4370 3830 c-9 -6 -10 -10 -3 -10 6 0 15 5 18 10 8 12 4 12 -15 0z"/>
<path d="M4425 3831 c-3 -5 -2 -12 3 -15 5 -3 9 1 9 9 0 17 -3 19 -12 6z"/>
<path d="M4393 3815 c-10 -11 -9 -13 6 -12 11 1 17 7 14 14 -6 16 -5 16 -20
-2z"/>
<path d="M4352 3780 c7 -11 21 -20 32 -20 16 0 15 3 -7 20 -14 11 -28 20 -31
20 -3 0 -1 -9 6 -20z"/>
<path d="M4340 3754 c1 -13 29 -48 34 -43 2 2 -4 15 -15 28 -10 13 -19 19 -19
15z"/>
<path d="M4300 3710 c0 -5 5 -10 10 -10 6 0 10 5 10 10 0 6 -4 10 -10 10 -5 0
-10 -4 -10 -10z"/>
<path d="M4330 3710 c0 -5 5 -10 10 -10 6 0 10 5 10 10 0 6 -4 10 -10 10 -5 0
-10 -4 -10 -10z"/>
<path d="M4311 3681 c-9 -6 -6 -8 13 -8 14 0 23 3 20 8 -7 11 -15 11 -33 0z"/>
<path d="M4305 3640 c-16 -11 -25 -20 -19 -20 11 0 64 39 54 40 -3 0 -18 -9
-35 -20z"/>
<path d="M4201 3586 c12 -10 60 -16 54 -6 -3 5 -18 10 -32 10 -15 0 -24 -2
-22 -4z"/>
<path d="M4218 3553 c7 -3 16 -2 19 1 4 3 -2 6 -13 5 -11 0 -14 -3 -6 -6z"/>
<path d="M4253 3548 c-17 -22 -21 -55 -7 -55 7 0 11 4 8 8 -2 4 2 10 8 12 10
4 10 8 -1 15 -11 8 -11 10 0 14 8 3 11 8 8 12 -3 4 -11 1 -16 -6z"/>
<path d="M4201 3488 c-13 -21 -14 -21 -28 -3 -13 19 -14 19 -12 0 4 -42 -1
-55 -23 -56 -22 -1 -22 -1 2 -9 l25 -8 -25 -8 -25 -8 25 -6 c33 -9 42 -3 30
21 -8 13 -7 19 0 19 6 0 15 12 20 26 6 16 16 24 24 21 10 -4 12 0 9 14 -6 23
-5 24 -22 -3z"/>
<path d="M4200 3456 c0 -2 7 -7 16 -10 8 -3 12 -2 9 4 -6 10 -25 14 -25 6z"/>
<path d="M4185 3430 c-3 -5 -2 -10 4 -10 5 0 13 5 16 10 3 6 2 10 -4 10 -5 0
-13 -4 -16 -10z"/>
<path d="M4176 3371 c-3 -4 -17 -6 -31 -3 -14 2 -25 2 -25 -1 0 -12 51 -13 61
-1 6 8 9 14 6 14 -3 0 -8 -4 -11 -9z"/>
<path d="M4096 3339 c3 -5 9 -7 14 -4 5 3 13 -2 18 -12 9 -15 11 -15 26 -1 14
14 14 17 0 22 -8 3 -12 2 -9 -4 7 -11 -8 -14 -19 -3 -10 11 -37 12 -30 2z"/>
<path d="M4100 3299 c0 -5 -4 -7 -10 -4 -5 3 -10 4 -10 1 0 -10 34 -46 43 -46
5 0 2 7 -7 15 -8 9 -13 22 -10 30 4 8 3 15 0 15 -3 0 -6 -5 -6 -11z"/>
<path d="M4120 3285 c0 -8 4 -15 10 -15 5 0 7 7 4 15 -4 8 -8 15 -10 15 -2 0
-4 -7 -4 -15z"/>
<path d="M4077 3223 c-4 -3 -7 -15 -7 -25 0 -15 -5 -17 -26 -12 -25 6 -26 5
-20 -20 4 -16 3 -25 -2 -22 -15 9 -34 -44 -22 -59 8 -10 7 -14 -2 -18 -7 -2
-10 -8 -6 -12 9 -9 39 20 42 40 1 8 11 24 22 37 l19 23 -22 -19 c-13 -11 -23
-15 -23 -9 0 15 36 44 44 36 4 -5 7 -3 6 2 -4 21 0 36 9 31 5 -4 8 1 7 9 -3
19 -11 27 -19 18z m-27 -53 c0 -5 -4 -10 -10 -10 -5 0 -10 5 -10 10 0 6 5 10
10 10 6 0 10 -4 10 -10z m-25 -68 c-2 -9 -4 -19 -4 -22 -1 -3 -5 1 -10 9 -10
16 -3 44 9 36 5 -3 7 -13 5 -23z"/>
<path d="M4001 3208 c-1 -10 -5 -18 -11 -18 -5 0 -10 -10 -10 -22 0 -21 2 -20
15 6 9 16 14 34 11 40 -2 6 -5 3 -5 -6z"/>
</g>
</svg>
